<?xml version="1.0" encoding="utf-8"?>
<svg width="1028" height="1108" viewBox="0 0 1028 1108" fill="none" xmlns="http://www.w3.org/2000/svg">
<g style="mix-blend-mode:multiply">
<path d="M541.381 141.694C530.197 155.48 515.06 165.51 498.007 170.438C480.953 175.365 462.799 174.953 445.987 169.256C429.174 163.56 414.508 152.852 403.962 138.573C393.415 124.294 387.492 107.128 386.991 89.3834C386.489 71.6385 391.432 54.1654 401.155 39.3133C410.878 24.4611 424.916 12.942 441.379 6.30468C457.843 -0.332668 475.945 -1.77005 493.25 2.18578C510.555 6.14161 526.234 15.301 538.179 28.4325C552.159 43.8137 560.168 63.6933 560.755 84.4703C561.342 105.247 554.469 125.548 541.381 141.694Z" fill="#F5F5F5"/>
</g>
<g style="mix-blend-mode:multiply">
<path d="M711.859 235.574L490.694 456.746C488.486 458.967 485.86 460.731 482.967 461.934C480.075 463.137 476.973 463.756 473.841 463.756C470.708 463.756 467.606 463.137 464.714 461.934C461.821 460.731 459.195 458.967 456.987 456.746L235.949 235.574C233.727 233.365 231.964 230.739 230.761 227.846C229.558 224.954 228.938 221.852 228.938 218.719C228.938 215.586 229.558 212.485 230.761 209.592C231.964 206.699 233.727 204.073 235.949 201.865L282.803 155.178C285.011 152.956 287.637 151.193 290.529 149.99C293.422 148.787 296.524 148.167 299.656 148.167C302.789 148.167 305.891 148.787 308.783 149.99C311.676 151.193 314.302 152.956 316.51 155.178L457.113 295.744C459.322 297.966 461.948 299.729 464.84 300.932C467.732 302.135 470.834 302.755 473.967 302.755C477.1 302.755 480.201 302.135 483.094 300.932C485.986 299.729 488.612 297.966 490.821 295.744L631.55 155.01C633.759 152.788 636.385 151.024 639.277 149.821C642.169 148.618 645.271 147.999 648.404 147.999C651.537 147.999 654.638 148.618 657.531 149.821C660.423 151.024 663.049 152.788 665.258 155.01L712.111 201.823C714.323 204.049 716.072 206.691 717.257 209.596C718.442 212.502 719.041 215.613 719.017 218.751C718.994 221.889 718.349 224.991 717.12 227.878C715.892 230.766 714.103 233.381 711.859 235.574Z" fill="#F5F5F5"/>
</g>
<g style="mix-blend-mode:multiply">
<path d="M74.2354 608.856C62.9053 622.762 47.5491 632.82 30.2748 637.65C13.0005 642.48 -5.34516 641.844 -22.244 635.831C-39.1428 629.818 -53.7664 618.722 -64.1075 604.066C-74.4485 589.409 -80 571.912 -80 553.974C-80 536.037 -74.4485 518.539 -64.1075 503.883C-53.7664 489.227 -39.1428 478.131 -22.244 472.117C-5.34516 466.104 13.0005 465.469 30.2748 470.299C47.5491 475.128 62.9053 485.186 74.2354 499.092C86.8584 514.597 93.7507 533.98 93.7507 553.974C93.7507 573.968 86.8584 593.351 74.2354 608.856Z" fill="#F5F5F5"/>
</g>
<g style="mix-blend-mode:multiply">
<path d="M541.296 1075.89C529.98 1089.82 514.628 1099.91 497.348 1104.76C480.068 1109.62 461.71 1109 444.795 1103C427.881 1096.99 413.241 1085.9 402.887 1071.23C392.534 1056.57 386.975 1039.06 386.975 1021.12C386.975 1003.17 392.534 985.658 402.887 970.997C413.241 956.335 427.881 945.24 444.795 939.236C461.71 933.232 480.068 932.614 497.348 937.467C514.628 942.321 529.98 952.406 541.296 966.339C553.866 981.828 560.726 1001.17 560.726 1021.12C560.726 1041.06 553.866 1060.4 541.296 1075.89Z" fill="#F5F5F5"/>
</g>
<g style="mix-blend-mode:multiply">
<path d="M376.676 570.766L155.512 791.937C153.303 794.159 150.677 795.923 147.785 797.126C144.892 798.329 141.791 798.948 138.658 798.948C135.525 798.948 132.423 798.329 129.531 797.126C126.639 795.923 124.013 794.159 121.804 791.937L75.119 745.082C72.8972 742.874 71.134 740.248 69.9309 737.355C68.7277 734.462 68.1083 731.361 68.1083 728.228C68.1083 725.095 68.7277 721.993 69.9309 719.101C71.134 716.208 72.8972 713.582 75.119 711.373L215.68 570.85C217.902 568.641 219.665 566.015 220.868 563.123C222.071 560.23 222.69 557.128 222.69 553.995C222.69 550.863 222.071 547.761 220.868 544.868C219.665 541.976 217.902 539.35 215.68 537.141L74.9504 396.407C72.7185 394.204 70.9463 391.58 69.7367 388.686C68.5272 385.793 67.9043 382.688 67.9043 379.552C67.9043 376.416 68.5272 373.312 69.7367 370.418C70.9463 367.525 72.7185 364.901 74.9504 362.698L121.93 316.011C124.139 313.789 126.765 312.026 129.657 310.823C132.55 309.62 135.652 309 138.784 309C141.917 309 145.019 309.62 147.911 310.823C150.804 312.026 153.43 313.789 155.638 316.011L376.802 537.183C381.234 541.656 383.71 547.704 383.687 554C383.663 560.297 381.141 566.327 376.676 570.766Z" fill="#F5F5F5"/>
</g>
<g style="mix-blend-mode:multiply">
<path d="M1008.36 608.814C997.042 622.747 981.689 632.833 964.409 637.686C947.129 642.539 928.771 641.921 911.856 635.917C894.942 629.913 880.302 618.818 869.948 604.157C859.595 589.495 854.036 571.986 854.036 554.038C854.036 536.089 859.595 518.58 869.948 503.919C880.302 489.257 894.942 478.162 911.856 472.158C928.771 466.154 947.129 465.536 964.409 470.389C981.689 475.242 997.042 485.328 1008.36 499.261C1020.93 514.749 1027.79 534.09 1027.79 554.038C1027.79 573.985 1020.93 593.326 1008.36 608.814Z" fill="#F5F5F5"/>
</g>
<g style="mix-blend-mode:multiply">
<path d="M872.6 745.167L825.873 791.938C823.665 794.16 821.038 795.923 818.146 797.126C815.254 798.329 812.152 798.949 809.019 798.949C805.887 798.949 802.785 798.329 799.892 797.126C797 795.923 794.374 794.16 792.165 791.938L571.338 571.103C569.117 568.894 567.353 566.268 566.15 563.376C564.947 560.483 564.328 557.381 564.328 554.248C564.328 551.116 564.947 548.014 566.15 545.121C567.353 542.229 569.117 539.603 571.338 537.394L792.502 316.222C794.711 314 797.337 312.237 800.229 311.034C803.122 309.831 806.224 309.211 809.356 309.211C812.489 309.211 815.591 309.831 818.483 311.034C821.376 312.237 824.002 314 826.21 316.222L872.558 362.572C874.78 364.78 876.543 367.406 877.746 370.299C878.949 373.191 879.569 376.293 879.569 379.426C879.569 382.559 878.949 385.661 877.746 388.553C876.543 391.446 874.78 394.072 872.558 396.281L731.787 537.183C729.565 539.392 727.802 542.018 726.598 544.911C725.395 547.803 724.776 550.905 724.776 554.038C724.776 557.171 725.395 560.272 726.598 563.165C727.802 566.057 729.565 568.684 731.787 570.892L872.6 711.711C877.01 716.161 879.485 722.173 879.485 728.439C879.485 734.704 877.01 740.716 872.6 745.167Z" fill="#F5F5F5"/>
</g>
<g style="mix-blend-mode:multiply">
<path d="M711.857 905.958L664.92 953.066C662.717 955.298 660.093 957.07 657.199 958.28C654.306 959.489 651.202 960.112 648.066 960.112C644.93 960.112 641.825 959.489 638.932 958.28C636.039 957.07 633.415 955.298 631.212 953.066L490.567 812.416C488.358 810.194 485.732 808.431 482.84 807.227C479.947 806.024 476.846 805.405 473.713 805.405C470.58 805.405 467.478 806.024 464.586 807.227C461.694 808.431 459.068 810.194 456.859 812.416L316.467 953.066C314.264 955.298 311.64 957.07 308.747 958.28C305.854 959.489 302.749 960.112 299.613 960.112C296.477 960.112 293.372 959.489 290.479 958.28C287.586 957.07 284.962 955.298 282.759 953.066L236.158 906.716C233.937 904.507 232.173 901.881 230.97 898.989C229.767 896.096 229.148 892.994 229.148 889.862C229.148 886.729 229.767 883.627 230.97 880.734C232.173 877.842 233.937 875.216 236.158 873.007L457.323 651.835C459.531 649.613 462.157 647.85 465.05 646.647C467.942 645.444 471.044 644.824 474.176 644.824C477.309 644.824 480.411 645.444 483.303 646.647C486.196 647.85 488.822 649.613 491.03 651.835L711.857 872.67C716.217 877.113 718.659 883.089 718.659 889.314C718.659 895.538 716.217 901.515 711.857 905.958Z" fill="#F5F5F5"/>
</g>
</svg>
