<?xml version="1.0" encoding="utf-8"?>
<svg width="298" height="487" viewBox="0 0 298 487" fill="none" xmlns="http://www.w3.org/2000/svg">
<path d="M189.18 66.4082H231.592V108.82H244.985V66.4082C244.985 59.0419 238.958 53.015 231.592 53.015H189.18V66.4082Z" fill="#FF7043"/>
<path d="M66.4082 108.82V66.4082H108.82V53.015H66.4082C59.0419 53.015 53.015 59.0419 53.015 66.4082V108.82H66.4082Z" fill="#FF7043"/>
<path d="M231.592 189.18V231.592H189.18V244.985H231.592C238.958 244.985 244.985 238.958 244.985 231.592V189.18H231.592Z" fill="#FF7043"/>
<path d="M108.82 231.592H66.4082V189.18H53.015V231.592C53.015 238.958 59.0419 244.985 66.4082 244.985H108.82V231.592Z" fill="#FF7043"/>
<path d="M37.9476 142.303H6.69663C3.01348 142.303 0 145.317 0 149C0 152.683 3.01348 155.697 6.69663 155.697H37.9476V142.303Z" fill="#FF7043"/>
<path d="M155.697 37.9476V6.69663C155.697 3.01348 152.683 0 149 0C145.317 0 142.303 3.01348 142.303 6.69663V37.9476H155.697Z" fill="#FF7043"/>
<path d="M142.303 260.052V291.303C142.303 294.987 145.317 298 149 298C152.683 298 155.697 294.987 155.697 291.303V260.052H142.303Z" fill="#FF7043"/>
<path d="M291.303 142.303H260.052V155.697H291.303C294.987 155.697 298 152.683 298 149C298 145.317 294.987 142.303 291.303 142.303Z" fill="#FF7043"/>
<path d="M147.476 85.8435C148.697 85.8435 149.974 85.8435 151.196 85.8435C153.139 86.4535 154.916 87.2852 156.248 88.8379C159.302 92.3868 159.413 98.0429 155.305 101.814C151.807 105.03 153.139 110.686 157.748 111.85C162.078 112.959 166.076 114.623 169.963 116.786C174.016 119.059 178.569 116.287 178.68 111.573C178.68 111.019 178.68 110.409 178.68 109.854C178.791 105.141 182.178 101.093 186.842 100.15C191.562 99.1519 196.392 101.647 198.336 106.028C200.224 110.353 198.891 115.566 195.171 118.338C192.894 120.057 190.285 120.445 187.509 120.445C182.845 120.39 179.957 125.159 182.289 129.207C184.455 132.978 186.176 136.915 187.175 141.129C187.675 143.347 189.119 144.955 191.395 145.454C193.783 145.953 195.948 145.565 197.725 143.569C201.279 139.576 206.942 139.521 210.773 143.292C212.106 144.622 212.772 146.341 213.383 148.06C213.383 149.114 213.383 150.223 213.383 151.277C213.161 151.776 212.994 152.275 212.772 152.774C210.329 159.095 202.167 160.537 197.67 155.491C194.56 151.997 188.841 153.051 187.398 157.543C186.065 161.923 184.51 166.193 182.178 170.186C180.846 172.459 181.456 175.01 183.233 176.951C184.899 178.725 186.953 178.67 189.119 178.725C193.561 178.781 197.447 181.664 198.78 185.879C200.113 190.148 198.724 194.584 195.171 197.191C191.395 199.963 186.787 200.019 183.067 197.357C179.846 195.084 178.625 191.867 178.68 187.986C178.736 182.607 174.016 179.89 169.408 182.607C165.965 184.659 162.301 186.1 158.469 187.098C156.082 187.708 154.25 188.984 153.694 191.479C153.084 193.974 153.694 196.137 155.749 197.967C158.914 200.74 159.413 205.675 157.192 209.224C155.804 211.442 153.639 212.551 151.307 213.383C150.252 213.383 149.141 213.383 148.086 213.383C147.753 213.272 147.365 213.105 147.031 212.994C143.644 211.885 141.479 209.556 140.757 206.063C140.035 202.68 141.201 199.797 143.755 197.579C145.699 195.86 145.921 193.697 145.477 191.424C145.033 189.206 143.478 187.708 141.312 187.265C136.926 186.322 132.873 184.548 128.986 182.274C126.654 180.943 124.044 181.442 122.157 183.328C120.491 184.991 120.435 187.043 120.435 189.206C120.435 193.531 117.604 197.302 113.495 198.688C109.386 200.074 104.778 198.743 102.057 195.305C99.4472 192.034 99.114 187.154 101.335 183.605C103.611 179.945 106.943 178.503 111.218 178.559C116.327 178.67 119.103 173.901 116.604 169.52C114.55 165.916 112.94 162.201 111.996 158.153C111.218 154.992 109.108 153.495 105.832 153.439C103.945 153.439 102.668 154.382 101.446 155.657C97.8925 159.262 92.6732 159.539 88.8421 156.267C87.2319 154.936 86.4545 153.107 85.8438 151.221C85.8438 150.001 85.8438 148.726 85.8438 147.506C86.6211 145.621 87.3984 143.735 89.1197 142.46C93.0064 139.41 98.2812 139.743 101.835 143.791C104.222 146.452 110.385 146.23 111.718 141.683C113.051 137.136 114.772 132.867 117.048 128.708C118.881 125.381 116.771 121.444 113.051 120.612C112.107 120.39 111.163 120.445 110.219 120.445C103.889 120.39 99.114 114.789 100.058 108.523C100.78 103.81 104.833 100.206 109.886 99.7619C113.995 99.4292 118.548 102.534 120.047 106.638C120.657 108.301 120.602 109.965 120.657 111.684C120.768 116.12 125.155 118.948 129.042 116.897C133.15 114.678 137.426 112.904 141.923 111.629C144.255 110.963 145.588 108.911 145.81 106.472C145.976 104.309 145.088 102.756 143.589 101.315C139.702 97.5438 139.813 91.4996 143.644 88.0061C144.533 87.008 146.032 86.4535 147.476 85.8435Z" fill="#FAFAFA"/>
<path d="M76.4791 328.829C81.5359 328.829 85.5913 330.131 88.6453 332.734C91.6994 335.338 93.2264 338.867 93.2264 343.323C93.2264 347.779 91.6744 351.259 88.5702 353.762C85.5162 356.215 81.4608 357.442 76.404 357.442L75.8783 357.818H63.7121V378.395H57.7041V328.829H76.4791ZM76.404 352.185C79.9588 352.185 82.5873 351.459 84.2895 350.007C86.0419 348.505 86.918 346.277 86.918 343.323C86.918 340.369 86.0419 338.166 84.2895 336.715C82.5873 335.213 79.9588 334.462 76.404 334.462H63.7121V352.185H76.404ZM79.8586 353.387L96.2304 378.395H89.0959L74.8269 356.691L79.8586 353.387ZM126.198 354.138C126.198 351.334 125.447 349.181 123.945 347.679C122.443 346.127 120.315 345.351 117.562 345.351C114.958 345.351 112.755 345.927 110.953 347.078C109.151 348.18 107.824 349.982 106.973 352.486L102.091 349.482C103.092 346.678 104.945 344.425 107.649 342.723C110.352 340.97 113.707 340.094 117.712 340.094C120.416 340.094 122.869 340.57 125.072 341.521C127.275 342.422 129.002 343.824 130.254 345.727C131.555 347.579 132.206 349.982 132.206 352.936V371.11C132.206 372.913 133.158 373.814 135.06 373.814C136.011 373.814 136.938 373.689 137.839 373.438L137.538 378.17C136.537 378.67 135.235 378.921 133.633 378.921C132.181 378.921 130.879 378.645 129.728 378.095C128.576 377.544 127.675 376.718 127.024 375.616C126.373 374.465 126.048 373.038 126.048 371.336V370.585L127.55 370.81C126.949 372.763 125.923 374.365 124.471 375.616C123.019 376.818 121.392 377.719 119.589 378.32C117.787 378.871 116.01 379.146 114.257 379.146C112.054 379.146 110.002 378.771 108.099 378.02C106.197 377.269 104.67 376.142 103.518 374.64C102.417 373.088 101.866 371.185 101.866 368.932C101.866 366.129 102.792 363.826 104.645 362.023C106.547 360.171 109.176 358.919 112.53 358.268L127.4 355.339V360.296L115.309 362.774C112.855 363.275 111.028 363.976 109.826 364.877C108.625 365.778 108.024 367.03 108.024 368.632C108.024 370.184 108.625 371.461 109.826 372.462C111.078 373.413 112.83 373.889 115.083 373.889C116.535 373.889 117.912 373.714 119.214 373.363C120.566 372.963 121.767 372.387 122.819 371.636C123.87 370.835 124.696 369.859 125.297 368.707C125.898 367.506 126.198 366.104 126.198 364.502V354.138ZM144.553 394.166V340.845H149.81L150.336 350.007L149.51 348.956C150.161 347.203 151.137 345.676 152.439 344.375C153.74 343.023 155.317 341.972 157.17 341.221C159.022 340.47 161.025 340.094 163.178 340.094C166.232 340.094 169.036 340.87 171.589 342.422C174.193 343.974 176.27 346.202 177.822 349.106C179.375 352.01 180.151 355.515 180.151 359.62C180.151 363.675 179.349 367.18 177.747 370.134C176.195 373.038 174.118 375.266 171.514 376.818C168.911 378.37 166.057 379.146 162.953 379.146C159.849 379.146 157.12 378.395 154.767 376.893C152.464 375.341 150.811 373.388 149.81 371.035L150.561 369.909V394.166H144.553ZM162.352 373.889C166.057 373.889 168.936 372.587 170.988 369.984C173.091 367.38 174.143 363.926 174.143 359.62C174.143 355.314 173.116 351.86 171.063 349.256C169.061 346.653 166.232 345.351 162.577 345.351C160.174 345.351 158.071 345.952 156.269 347.153C154.466 348.305 153.064 349.957 152.063 352.11C151.062 354.213 150.561 356.716 150.561 359.62C150.561 362.474 151.037 364.977 151.988 367.13C152.989 369.283 154.366 370.96 156.119 372.162C157.921 373.313 159.999 373.889 162.352 373.889ZM192.388 333.635C191.037 333.635 189.935 333.235 189.084 332.434C188.283 331.583 187.882 330.481 187.882 329.129C187.882 327.778 188.283 326.701 189.084 325.9C189.935 325.049 191.037 324.623 192.388 324.623C193.74 324.623 194.817 325.049 195.618 325.9C196.469 326.701 196.894 327.778 196.894 329.129C196.894 330.481 196.469 331.583 195.618 332.434C194.817 333.235 193.74 333.635 192.388 333.635ZM195.392 340.845V378.395H189.384V340.845H195.392ZM221.724 379.146C218.62 379.146 215.766 378.37 213.163 376.818C210.559 375.266 208.482 373.038 206.93 370.134C205.378 367.18 204.601 363.675 204.601 359.62C204.601 355.464 205.428 351.935 207.08 349.031C208.732 346.127 210.91 343.924 213.613 342.422C216.317 340.87 219.221 340.094 222.325 340.094C225.429 340.094 228.108 340.895 230.361 342.497C232.664 344.099 234.191 346.227 234.942 348.881L234.191 349.406V323.572H240.199V378.395H234.942L234.416 369.308L235.242 368.857C234.892 371.06 234.041 372.938 232.689 374.49C231.387 375.992 229.76 377.143 227.807 377.944C225.905 378.745 223.877 379.146 221.724 379.146ZM222.325 373.889C224.728 373.889 226.806 373.288 228.558 372.087C230.361 370.885 231.738 369.183 232.689 366.98C233.69 364.727 234.191 362.098 234.191 359.094C234.191 356.241 233.69 353.787 232.689 351.735C231.738 349.682 230.386 348.105 228.633 347.003C226.931 345.902 224.929 345.351 222.625 345.351C218.82 345.351 215.866 346.653 213.764 349.256C211.661 351.86 210.609 355.314 210.609 359.62C210.609 363.926 211.636 367.38 213.689 369.984C215.741 372.587 218.62 373.889 222.325 373.889ZM68.2613 399.686C70.7457 399.686 72.8963 400.149 74.7132 401.076C76.5672 401.966 78.0134 403.245 79.0516 404.914C80.0898 406.583 80.609 408.566 80.609 410.865C80.609 413.164 80.0898 415.148 79.0516 416.817C78.0134 418.485 76.5672 419.783 74.7132 420.71C72.8963 421.6 70.7457 422.045 68.2613 422.045H59.7515V436.395H55.3019V399.686H68.2613ZM67.5939 417.874C70.4861 417.874 72.5997 417.28 73.9346 416.094C75.2694 414.87 75.9369 413.127 75.9369 410.865C75.9369 408.566 75.2694 406.824 73.9346 405.637C72.5997 404.451 70.4861 403.857 67.5939 403.857H59.7515V417.874H67.5939ZM102.988 418.43C102.988 416.353 102.432 414.759 101.319 413.646C100.207 412.497 98.6309 411.922 96.5915 411.922C94.6633 411.922 93.0318 412.349 91.6969 413.201C90.362 414.017 89.3794 415.352 88.749 417.206L85.1337 414.981C85.8753 412.905 87.2473 411.236 89.2496 409.976C91.2519 408.678 93.7363 408.029 96.7027 408.029C98.705 408.029 100.522 408.381 102.153 409.086C103.785 409.753 105.064 410.791 105.991 412.2C106.955 413.572 107.437 415.352 107.437 417.54V431C107.437 432.335 108.142 433.002 109.551 433.002C110.255 433.002 110.941 432.909 111.609 432.724L111.386 436.228C110.645 436.599 109.681 436.784 108.494 436.784C107.419 436.784 106.455 436.58 105.602 436.173C104.749 435.765 104.082 435.153 103.6 434.337C103.118 433.484 102.877 432.427 102.877 431.167V430.611L103.989 430.777C103.544 432.224 102.784 433.41 101.708 434.337C100.633 435.227 99.4281 435.894 98.0932 436.339C96.7583 436.747 95.442 436.951 94.1442 436.951C92.5127 436.951 90.9924 436.673 89.5833 436.117C88.1743 435.561 87.0434 434.726 86.1905 433.614C85.3748 432.465 84.9669 431.055 84.9669 429.387C84.9669 427.31 85.6529 425.605 87.0248 424.27C88.4339 422.898 90.3806 421.971 92.8649 421.489L103.878 419.32V422.991L94.9229 424.826C93.1059 425.197 91.7525 425.716 90.8626 426.383C89.9727 427.051 89.5277 427.978 89.5277 429.164C89.5277 430.314 89.9727 431.259 90.8626 432.001C91.7896 432.706 93.0874 433.058 94.756 433.058C95.8313 433.058 96.851 432.928 97.8151 432.668C98.8163 432.372 99.7062 431.945 100.485 431.389C101.264 430.796 101.875 430.073 102.32 429.22C102.765 428.33 102.988 427.292 102.988 426.105V418.43ZM126.593 436.951C123.886 436.951 121.383 436.376 119.085 435.227C116.823 434.078 115.08 432.446 113.856 430.332L117.638 427.607C118.454 429.313 119.641 430.648 121.198 431.612C122.793 432.576 124.702 433.058 126.927 433.058C128.892 433.058 130.431 432.687 131.543 431.945C132.656 431.167 133.212 430.166 133.212 428.942C133.212 428.163 132.952 427.459 132.433 426.828C131.951 426.161 131.006 425.679 129.597 425.382L122.922 423.992C120.215 423.436 118.269 422.509 117.082 421.211C115.933 419.913 115.358 418.3 115.358 416.372C115.358 414.852 115.784 413.461 116.637 412.2C117.527 410.94 118.769 409.938 120.364 409.197C121.995 408.418 123.905 408.029 126.093 408.029C128.837 408.029 131.154 408.566 133.045 409.642C134.936 410.717 136.345 412.237 137.272 414.203L133.546 416.65C132.915 415.018 131.896 413.832 130.487 413.09C129.078 412.312 127.613 411.922 126.093 411.922C124.758 411.922 123.608 412.108 122.644 412.478C121.717 412.849 120.994 413.368 120.475 414.036C119.993 414.666 119.752 415.389 119.752 416.205C119.752 417.021 120.03 417.781 120.586 418.485C121.142 419.153 122.181 419.635 123.701 419.931L130.653 421.378C133.249 421.897 135.066 422.75 136.104 423.936C137.142 425.123 137.662 426.569 137.662 428.274C137.662 430.017 137.198 431.556 136.271 432.891C135.344 434.189 134.046 435.19 132.378 435.894C130.709 436.599 128.781 436.951 126.593 436.951ZM154.255 436.951C151.549 436.951 149.046 436.376 146.747 435.227C144.485 434.078 142.742 432.446 141.519 430.332L145.301 427.607C146.116 429.313 147.303 430.648 148.86 431.612C150.455 432.576 152.364 433.058 154.589 433.058C156.554 433.058 158.093 432.687 159.206 431.945C160.318 431.167 160.874 430.166 160.874 428.942C160.874 428.163 160.615 427.459 160.096 426.828C159.614 426.161 158.668 425.679 157.259 425.382L150.585 423.992C147.878 423.436 145.931 422.509 144.744 421.211C143.595 419.913 143.02 418.3 143.02 416.372C143.02 414.852 143.447 413.461 144.3 412.2C145.189 410.94 146.432 409.938 148.026 409.197C149.658 408.418 151.567 408.029 153.755 408.029C156.499 408.029 158.816 408.566 160.707 409.642C162.598 410.717 164.008 412.237 164.935 414.203L161.208 416.65C160.578 415.018 159.558 413.832 158.149 413.09C156.74 412.312 155.275 411.922 153.755 411.922C152.42 411.922 151.271 412.108 150.306 412.478C149.379 412.849 148.656 413.368 148.137 414.036C147.655 414.666 147.414 415.389 147.414 416.205C147.414 417.021 147.692 417.781 148.249 418.485C148.805 419.153 149.843 419.635 151.363 419.931L158.316 421.378C160.911 421.897 162.728 422.75 163.767 423.936C164.805 425.123 165.324 426.569 165.324 428.274C165.324 430.017 164.86 431.556 163.933 432.891C163.006 434.189 161.709 435.19 160.04 435.894C158.371 436.599 156.443 436.951 154.255 436.951ZM174.131 429.721C175.206 429.721 176.078 430.054 176.745 430.722C177.413 431.389 177.746 432.261 177.746 433.336C177.746 434.411 177.413 435.283 176.745 435.95C176.078 436.617 175.206 436.951 174.131 436.951C173.056 436.951 172.184 436.617 171.517 435.95C170.849 435.283 170.516 434.411 170.516 433.336C170.516 432.261 170.849 431.389 171.517 430.722C172.184 430.054 173.056 429.721 174.131 429.721ZM185.012 448.075V408.585H188.905L189.294 415.371L188.683 414.592C189.165 413.294 189.888 412.163 190.852 411.199C191.816 410.198 192.984 409.419 194.356 408.863C195.728 408.307 197.211 408.029 198.805 408.029C201.067 408.029 203.144 408.604 205.035 409.753C206.963 410.903 208.502 412.553 209.651 414.703C210.801 416.854 211.375 419.449 211.375 422.49C211.375 425.493 210.782 428.089 209.596 430.277C208.446 432.427 206.907 434.078 204.979 435.227C203.051 436.376 200.937 436.951 198.639 436.951C196.34 436.951 194.319 436.395 192.576 435.283C190.87 434.133 189.647 432.687 188.905 430.944L189.461 430.11V448.075H185.012ZM198.194 433.058C200.937 433.058 203.07 432.094 204.59 430.166C206.147 428.237 206.926 425.679 206.926 422.49C206.926 419.301 206.166 416.743 204.645 414.814C203.162 412.886 201.067 411.922 198.36 411.922C196.581 411.922 195.023 412.367 193.688 413.257C192.353 414.11 191.315 415.334 190.574 416.928C189.832 418.485 189.461 420.339 189.461 422.49C189.461 424.604 189.813 426.458 190.518 428.052C191.26 429.646 192.279 430.889 193.577 431.779C194.912 432.631 196.451 433.058 198.194 433.058ZM218.214 436.395V395.792H222.664V412.757C223.628 411.088 224.907 409.883 226.502 409.141C228.096 408.4 229.839 408.029 231.73 408.029C233.732 408.029 235.549 408.418 237.181 409.197C238.812 409.938 240.11 411.088 241.074 412.645C242.075 414.203 242.576 416.186 242.576 418.597V436.395H238.126V420.154C238.126 417.076 237.459 414.944 236.124 413.758C234.826 412.534 233.213 411.922 231.285 411.922C229.95 411.922 228.615 412.237 227.28 412.868C225.945 413.498 224.833 414.536 223.943 415.982C223.09 417.392 222.664 419.283 222.664 421.656V436.395H218.214Z" fill="#FAFAFA"/>
</svg>
