<?xml version="1.0" encoding="utf-8"?>
<svg width="637" height="641" viewBox="0 0 637 641" fill="none" xmlns="http://www.w3.org/2000/svg">
<g style="mix-blend-mode:multiply">
<path d="M358.989 82.7377C352.528 90.7019 343.783 96.4969 333.93 99.3436C324.078 102.19 313.59 101.952 303.877 98.661C294.164 95.37 285.691 89.184 279.598 80.9346C273.505 72.6852 270.083 62.768 269.794 52.5163C269.504 42.2646 272.359 32.1698 277.977 23.5893C283.594 15.0088 291.704 8.35393 301.215 4.51935C310.727 0.684762 321.185 -0.145657 331.182 2.13974C341.18 4.42514 350.238 9.71678 357.139 17.3032C365.216 26.1893 369.843 37.6743 370.182 49.6778C370.521 61.6813 366.551 73.4094 358.989 82.7377Z" fill="#F5F5F5"/>
</g>
<g style="mix-blend-mode:multiply">
<path d="M457.479 136.975L329.706 264.752C328.43 266.035 326.913 267.054 325.242 267.749C323.571 268.444 321.779 268.802 319.969 268.802C318.16 268.802 316.368 268.444 314.697 267.749C313.025 267.054 311.508 266.035 310.232 264.752L182.533 136.975C181.249 135.699 180.23 134.181 179.535 132.51C178.84 130.839 178.482 129.047 178.482 127.237C178.482 125.427 178.84 123.635 179.535 121.964C180.23 120.293 181.249 118.776 182.533 117.5L209.601 90.5278C210.877 89.2441 212.394 88.2255 214.065 87.5303C215.736 86.8352 217.528 86.4774 219.338 86.4774C221.148 86.4774 222.94 86.8352 224.611 87.5303C226.282 88.2255 227.799 89.2441 229.075 90.5278L310.305 171.737C311.581 173.02 313.099 174.039 314.77 174.734C316.441 175.429 318.233 175.787 320.042 175.787C321.852 175.787 323.644 175.429 325.315 174.734C326.986 174.039 328.503 173.02 329.779 171.737L411.083 90.4304C412.359 89.1468 413.876 88.1281 415.547 87.433C417.218 86.7379 419.01 86.38 420.82 86.38C422.629 86.38 424.421 86.7379 426.092 87.433C427.764 88.1281 429.281 89.1468 430.557 90.4304L457.625 117.476C458.903 118.762 459.913 120.288 460.598 121.967C461.283 123.645 461.628 125.443 461.615 127.256C461.601 129.068 461.229 130.861 460.519 132.529C459.809 134.197 458.776 135.708 457.479 136.975Z" fill="#F5F5F5"/>
</g>
<g style="mix-blend-mode:multiply">
<path d="M89.1061 352.631C82.5604 360.664 73.6887 366.475 63.7089 369.265C53.729 372.056 43.1302 371.689 33.3673 368.215C23.6043 364.741 15.1559 358.33 9.18157 349.863C3.20727 341.395 0 331.287 0 320.924C0 310.561 3.20727 300.452 9.18157 291.984C15.1559 283.517 23.6043 277.107 33.3673 273.633C43.1302 270.159 53.729 269.792 63.7089 272.582C73.6887 275.372 82.5604 281.183 89.1061 289.217C96.3988 298.174 100.381 309.372 100.381 320.924C100.381 332.475 96.3988 343.673 89.1061 352.631Z" fill="#F5F5F5"/>
</g>
<g style="mix-blend-mode:multiply">
<path d="M358.941 622.45C352.403 630.499 343.534 636.326 333.551 639.13C323.568 641.934 312.961 641.577 303.189 638.108C293.417 634.64 284.96 628.23 278.978 619.759C272.997 611.289 269.785 601.174 269.785 590.804C269.785 580.435 272.997 570.32 278.978 561.849C284.96 553.379 293.417 546.969 303.189 543.5C312.961 540.031 323.568 539.675 333.551 542.478C343.534 545.282 352.403 551.109 358.941 559.158C366.202 568.106 370.166 579.28 370.166 590.804C370.166 602.328 366.202 613.502 358.941 622.45Z" fill="#F5F5F5"/>
</g>
<g style="mix-blend-mode:multiply">
<path d="M263.835 330.624L136.062 458.402C134.786 459.685 133.269 460.704 131.598 461.399C129.927 462.094 128.135 462.452 126.325 462.452C124.515 462.452 122.723 462.094 121.052 461.399C119.381 460.704 117.864 459.685 116.588 458.402L89.6168 431.332C88.3333 430.056 87.3146 428.539 86.6195 426.868C85.9244 425.197 85.5666 423.405 85.5666 421.595C85.5666 419.785 85.9244 417.993 86.6195 416.322C87.3146 414.651 88.3333 413.133 89.6168 411.857L170.823 330.673C172.106 329.397 173.125 327.88 173.82 326.209C174.515 324.538 174.873 322.746 174.873 320.936C174.873 319.126 174.515 317.334 173.82 315.663C173.125 313.992 172.106 312.474 170.823 311.198L89.5195 229.892C88.23 228.62 87.2062 227.104 86.5074 225.432C85.8086 223.76 85.4487 221.967 85.4487 220.155C85.4487 218.343 85.8086 216.55 86.5074 214.878C87.2062 213.207 88.23 211.69 89.5195 210.418L116.661 183.446C117.937 182.162 119.454 181.143 121.125 180.448C122.796 179.753 124.588 179.395 126.398 179.395C128.208 179.395 130 179.753 131.671 180.448C133.342 181.143 134.859 182.162 136.135 183.446L263.908 311.223C266.468 313.807 267.899 317.301 267.885 320.939C267.871 324.576 266.415 328.06 263.835 330.624Z" fill="#F5F5F5"/>
</g>
<g style="mix-blend-mode:multiply">
<path d="M628.775 352.606C622.237 360.655 613.368 366.482 603.385 369.286C593.402 372.09 582.795 371.733 573.023 368.264C563.251 364.796 554.794 358.386 548.812 349.915C542.831 341.445 539.619 331.33 539.619 320.96C539.619 310.59 542.831 300.475 548.812 292.005C554.794 283.534 563.251 277.124 573.023 273.656C582.795 270.187 593.402 269.83 603.385 272.634C613.368 275.438 622.237 281.265 628.775 289.314C636.037 298.262 640 309.436 640 320.96C640 332.484 636.037 343.658 628.775 352.606Z" fill="#F5F5F5"/>
</g>
<g style="mix-blend-mode:multiply">
<path d="M550.344 431.381L523.348 458.402C522.072 459.685 520.555 460.704 518.884 461.399C517.213 462.094 515.421 462.452 513.611 462.452C511.801 462.452 510.009 462.094 508.338 461.399C506.667 460.704 505.15 459.685 503.874 458.402L376.296 330.819C375.013 329.543 373.994 328.026 373.299 326.355C372.604 324.684 372.246 322.892 372.246 321.082C372.246 319.272 372.604 317.48 373.299 315.809C373.994 314.138 375.013 312.621 376.296 311.345L504.069 183.567C505.345 182.284 506.862 181.265 508.533 180.57C510.204 179.875 511.996 179.517 513.806 179.517C515.616 179.517 517.408 179.875 519.079 180.57C520.75 181.265 522.267 182.284 523.543 183.567L550.32 210.345C551.603 211.621 552.622 213.138 553.317 214.809C554.012 216.48 554.37 218.272 554.37 220.082C554.37 221.892 554.012 223.684 553.317 225.355C552.622 227.026 551.603 228.543 550.32 229.819L468.992 311.223C467.708 312.499 466.69 314.016 465.995 315.687C465.299 317.358 464.942 319.15 464.942 320.96C464.942 322.77 465.299 324.562 465.995 326.233C466.69 327.904 467.708 329.422 468.992 330.697L550.344 412.052C552.892 414.623 554.321 418.097 554.321 421.717C554.321 425.336 552.892 428.81 550.344 431.381Z" fill="#F5F5F5"/>
</g>
<g style="mix-blend-mode:multiply">
<path d="M457.479 524.274L430.361 551.49C429.089 552.779 427.573 553.803 425.901 554.502C424.23 555.201 422.436 555.561 420.624 555.561C418.813 555.561 417.019 555.201 415.348 554.502C413.676 553.803 412.16 552.779 410.887 551.49L329.633 470.232C328.357 468.949 326.84 467.93 325.169 467.235C323.498 466.54 321.706 466.182 319.896 466.182C318.086 466.182 316.294 466.54 314.623 467.235C312.952 467.93 311.435 468.949 310.159 470.232L229.05 551.49C227.778 552.779 226.262 553.803 224.59 554.502C222.919 555.201 221.125 555.561 219.313 555.561C217.502 555.561 215.708 555.201 214.036 554.502C212.365 553.803 210.849 552.779 209.576 551.49L182.654 524.712C181.37 523.436 180.352 521.919 179.656 520.248C178.961 518.577 178.604 516.785 178.604 514.975C178.604 513.165 178.961 511.373 179.656 509.702C180.352 508.031 181.37 506.514 182.654 505.238L310.427 377.461C311.703 376.177 313.22 375.158 314.891 374.463C316.562 373.768 318.354 373.41 320.164 373.41C321.973 373.41 323.765 373.768 325.436 374.463C327.107 375.158 328.625 376.177 329.9 377.461L457.479 505.043C459.997 507.61 461.408 511.062 461.408 514.659C461.408 518.255 459.997 521.707 457.479 524.274Z" fill="#F5F5F5"/>
</g>
</svg>
