<?xml version="1.0" encoding="utf-8"?>
<svg width="454" height="454" viewBox="0 0 454 454" fill="none" xmlns="http://www.w3.org/2000/svg">
<path d="M253.267 73.3756C249.073 78.5449 243.397 82.3062 237.002 84.1538C230.608 86.0015 223.8 85.8469 217.496 83.7108C211.192 81.5748 205.692 77.5597 201.738 72.2054C197.783 66.851 195.562 60.4142 195.374 53.7603C195.186 47.1063 197.039 40.5543 200.685 34.985C204.331 29.4158 209.595 25.0964 215.768 22.6075C221.942 20.1187 228.73 19.5797 235.219 21.063C241.708 22.5464 247.587 25.981 252.066 30.905C257.308 36.6726 260.311 44.127 260.532 51.9179C260.752 59.7089 258.175 67.3211 253.267 73.3756Z" fill="#E8CA04"/>
<path d="M317.192 108.578L234.26 191.513C233.432 192.346 232.447 193.007 231.363 193.458C230.278 193.91 229.115 194.142 227.94 194.142C226.766 194.142 225.602 193.91 224.518 193.458C223.433 193.007 222.449 192.346 221.62 191.513L138.736 108.578C137.903 107.75 137.242 106.765 136.791 105.681C136.339 104.596 136.107 103.433 136.107 102.258C136.107 101.084 136.339 99.9204 136.791 98.8357C137.242 97.7511 137.903 96.7664 138.736 95.9382L156.305 78.4317C157.133 77.5985 158.118 76.9374 159.203 76.4862C160.287 76.035 161.45 75.8028 162.625 75.8028C163.8 75.8028 164.963 76.035 166.047 76.4862C167.132 76.9374 168.117 77.5985 168.945 78.4317L221.668 131.141C222.496 131.974 223.481 132.635 224.565 133.086C225.65 133.537 226.813 133.77 227.988 133.77C229.162 133.77 230.325 133.537 231.41 133.086C232.495 132.635 233.479 131.974 234.307 131.141L287.078 78.3685C287.906 77.5353 288.891 76.8742 289.975 76.423C291.06 75.9718 292.223 75.7396 293.398 75.7396C294.572 75.7396 295.736 75.9718 296.82 76.423C297.905 76.8742 298.889 77.5353 299.718 78.3685L317.287 95.9224C318.116 96.7571 318.772 97.7478 319.216 98.8373C319.661 99.9267 319.885 101.093 319.876 102.27C319.867 103.447 319.626 104.61 319.165 105.693C318.704 106.775 318.034 107.756 317.192 108.578Z" fill="#E8CA04"/>
<path d="M78.0971 248.551C73.8486 253.766 68.0904 257.537 61.6129 259.348C55.1354 261.159 48.2562 260.921 41.9195 258.666C35.5828 256.411 30.0992 252.251 26.2216 246.755C22.3439 241.259 20.2622 234.698 20.2622 227.972C20.2622 221.246 22.3439 214.684 26.2216 209.189C30.0992 203.693 35.5828 199.532 41.9195 197.277C48.2562 195.022 55.1354 194.784 61.6129 196.595C68.0904 198.406 73.8486 202.178 78.0971 207.392C82.8305 213.206 85.415 220.474 85.415 227.972C85.415 235.469 82.8305 242.737 78.0971 248.551Z" fill="#71B406"/>
<path d="M253.235 423.68C248.992 428.904 243.235 432.686 236.756 434.506C230.276 436.326 223.392 436.094 217.049 433.843C210.707 431.591 205.217 427.431 201.335 421.933C197.453 416.435 195.368 409.87 195.368 403.139C195.368 396.409 197.453 389.844 201.335 384.346C205.217 378.848 210.707 374.688 217.049 372.436C223.392 370.185 230.276 369.953 236.756 371.773C243.235 373.593 248.992 377.375 253.235 382.599C257.948 388.407 260.521 395.66 260.521 403.139C260.521 410.619 257.948 417.872 253.235 423.68Z" fill="#7F08FF"/>
<path d="M191.506 234.268L108.575 317.203C107.746 318.036 106.762 318.697 105.677 319.148C104.592 319.599 103.429 319.832 102.255 319.832C101.08 319.832 99.9169 319.599 98.8323 319.148C97.7477 318.697 96.763 318.036 95.9349 317.203L78.429 299.633C77.5959 298.805 76.9347 297.82 76.4836 296.736C76.0324 295.651 75.8001 294.488 75.8001 293.313C75.8001 292.138 76.0324 290.975 76.4836 289.891C76.9347 288.806 77.5959 287.821 78.429 286.993L131.136 234.3C131.969 233.471 132.631 232.487 133.082 231.402C133.533 230.317 133.765 229.154 133.765 227.98C133.765 226.805 133.533 225.642 133.082 224.557C132.631 223.472 131.969 222.488 131.136 221.66L78.3658 168.887C77.5288 168.061 76.8643 167.077 76.4108 165.992C75.9572 164.907 75.7236 163.743 75.7236 162.567C75.7236 161.391 75.9572 160.227 76.4108 159.142C76.8643 158.057 77.5288 157.073 78.3658 156.247L95.9823 138.741C96.8104 137.908 97.7951 137.246 98.8797 136.795C99.9643 136.344 101.127 136.112 102.302 136.112C103.477 136.112 104.64 136.344 105.724 136.795C106.809 137.246 107.794 137.908 108.622 138.741L191.554 221.675C193.216 223.352 194.144 225.62 194.135 227.982C194.126 230.343 193.181 232.604 191.506 234.268Z" fill="#71B406"/>
<path d="M428.373 248.536C424.13 253.76 418.373 257.542 411.893 259.362C405.414 261.181 398.53 260.95 392.187 258.699C385.845 256.447 380.355 252.287 376.473 246.789C372.59 241.291 370.506 234.726 370.506 227.995C370.506 221.265 372.59 214.7 376.473 209.202C380.355 203.704 385.845 199.544 392.187 197.292C398.53 195.041 405.414 194.809 411.893 196.629C418.373 198.449 424.13 202.231 428.373 207.455C433.086 213.263 435.659 220.516 435.659 227.995C435.659 235.475 433.086 242.728 428.373 248.536Z" fill="#EA641D"/>
<path d="M377.467 299.665L359.945 317.203C359.117 318.036 358.132 318.697 357.048 319.148C355.963 319.599 354.8 319.832 353.625 319.832C352.451 319.832 351.288 319.599 350.203 319.148C349.118 318.697 348.134 318.036 347.306 317.203L264.5 234.394C263.667 233.566 263.006 232.582 262.555 231.497C262.104 230.412 261.871 229.249 261.871 228.074C261.871 226.9 262.104 225.737 262.555 224.652C263.006 223.567 263.667 222.583 264.5 221.754L347.432 138.82C348.26 137.987 349.245 137.325 350.329 136.874C351.414 136.423 352.577 136.191 353.752 136.191C354.926 136.191 356.09 136.423 357.174 136.874C358.259 137.325 359.243 137.987 360.072 138.82L377.451 156.2C378.284 157.028 378.945 158.013 379.397 159.097C379.848 160.182 380.08 161.345 380.08 162.52C380.08 163.695 379.848 164.858 379.397 165.942C378.945 167.027 378.284 168.012 377.451 168.84L324.665 221.675C323.832 222.504 323.171 223.488 322.719 224.573C322.268 225.658 322.036 226.821 322.036 227.995C322.036 229.17 322.268 230.333 322.719 231.418C323.171 232.503 323.832 233.487 324.665 234.315L377.467 287.119C379.121 288.788 380.048 291.043 380.048 293.392C380.048 295.741 379.121 297.996 377.467 299.665Z" fill="#EA641D"/>
<path d="M317.192 359.958L299.591 377.622C298.765 378.459 297.781 379.124 296.696 379.577C295.611 380.031 294.447 380.265 293.271 380.265C292.095 380.265 290.931 380.031 289.846 379.577C288.761 379.124 287.777 378.459 286.951 377.622L234.212 324.882C233.384 324.048 232.399 323.387 231.315 322.936C230.23 322.485 229.067 322.253 227.892 322.253C226.718 322.253 225.555 322.485 224.47 322.936C223.385 323.387 222.401 324.048 221.573 324.882L168.929 377.622C168.103 378.459 167.119 379.124 166.034 379.577C164.949 380.031 163.785 380.265 162.609 380.265C161.433 380.265 160.269 380.031 159.184 379.577C158.099 379.124 157.115 378.459 156.289 377.622L138.815 360.242C137.982 359.414 137.32 358.429 136.869 357.345C136.418 356.26 136.186 355.097 136.186 353.922C136.186 352.747 136.418 351.584 136.869 350.5C137.32 349.415 137.982 348.43 138.815 347.602L221.746 264.667C222.575 263.834 223.559 263.173 224.644 262.722C225.728 262.271 226.892 262.039 228.066 262.039C229.241 262.039 230.404 262.271 231.489 262.722C232.573 263.173 233.558 263.834 234.386 264.667L317.192 347.476C318.826 349.142 319.742 351.383 319.742 353.717C319.742 356.051 318.826 358.292 317.192 359.958Z" fill="#7F08FF"/>
</svg>
