<svg width="110" height="110" viewBox="0 0 110 110" fill="none" xmlns="http://www.w3.org/2000/svg">
<path d="M55 1.74023C24.6641 1.74023 0 26.4258 0 56.7402C0 79.3633 14.1797 99.9668 35.2773 108.023C36.1582 108.367 37.1465 108.324 38.0059 107.916C38.8652 107.486 39.5098 106.756 39.7891 105.854L50.1016 72.918C50.5957 71.3496 49.9082 69.6738 48.4902 68.8789C44.0215 66.4082 41.25 61.7676 41.25 56.7617C41.25 49.1777 47.416 43.0117 55 43.0117C62.584 43.0117 68.75 49.1777 68.75 56.7617C68.75 61.7676 65.9785 66.4082 61.5098 68.8789C60.0703 69.6738 59.4043 71.3496 59.8984 72.918L70.2109 105.854C70.4902 106.756 71.1562 107.508 71.9941 107.916C72.4668 108.152 72.9824 108.26 73.498 108.26C73.9277 108.26 74.3359 108.174 74.7227 108.023C95.8203 99.9883 110 79.3848 110 56.7402C110 26.4258 85.3359 1.74023 55 1.74023ZM75.6465 100.16L67.2461 73.3476C72.4883 69.459 75.625 63.3144 75.625 56.7617C75.625 45.3965 66.3652 36.1367 55 36.1367C43.6348 36.1367 34.375 45.3965 34.375 56.7617C34.375 63.3359 37.5332 69.459 42.7539 73.3476L34.3535 100.16C17.7891 92.3184 6.875 75.3027 6.875 56.7402C6.875 30.207 28.4668 8.61523 55 8.61523C81.5332 8.61523 103.125 30.207 103.125 56.7402C103.125 75.3027 92.2109 92.3184 75.6465 100.16Z" fill="white"/>
</svg>
