<svg width="110" height="110" viewBox="0 0 110 110" fill="none" xmlns="http://www.w3.org/2000/svg">
<g clip-path="url(#clip0)">
<path d="M98.757 17.8119L56.6476 0.328591C55.5928 -0.10926 54.407 -0.109475 53.3524 0.328591L11.243 17.8119C9.63918 18.4779 8.59375 20.0437 8.59375 21.7803V43.0337C8.59375 72.2982 26.2816 98.6224 53.3762 109.681C54.4169 110.106 55.5829 110.106 56.6238 109.681C83.7179 98.6226 101.406 72.2985 101.406 43.0337V21.7803C101.406 20.0437 100.361 18.4779 98.757 17.8119ZM92.8125 43.0337C92.8125 67.9116 78.2031 90.8133 55 101.036C32.4169 91.0863 17.1875 68.5857 17.1875 43.0337V24.6489L55 8.94941L92.8125 24.6489V43.0337ZM50.2507 57.5172L68.7195 39.0486C70.3974 37.3707 73.118 37.3704 74.7961 39.0486C76.4743 40.7267 76.4741 43.4473 74.7959 45.1252L53.289 66.6322C51.6106 68.3105 48.8901 68.3099 47.2123 66.6322L35.2039 54.6237C33.5257 52.9455 33.5257 50.225 35.2039 48.547C36.882 46.8691 39.6026 46.8689 41.2805 48.547L50.2507 57.5172Z" fill="white"/>
</g>
<defs>
<clipPath id="clip0">
<rect width="110" height="110" fill="white"/>
</clipPath>
</defs>
</svg>
