<svg width="110" height="110" viewBox="0 0 110 110" fill="none" xmlns="http://www.w3.org/2000/svg">
<path d="M98.4199 87.9141C99.5371 86.3027 100.203 84.3477 100.203 82.2207V80.2656C100.203 74.7656 95.7344 70.2969 90.2344 70.2969C84.7344 70.2969 80.2656 74.7656 80.2656 80.2656V82.2207C80.2656 84.3262 80.9316 86.3027 82.0488 87.9141C78.1602 88.0215 74.7227 90.0195 72.6172 93.0273C70.5117 90.0195 67.0957 88.043 63.1855 87.9141C64.3027 86.3027 64.9688 84.3477 64.9688 82.2207V80.2656C64.9688 74.7656 60.5 70.2969 55 70.2969C49.5 70.2969 45.0312 74.7656 45.0312 80.2656V82.2207C45.0312 84.3262 45.6973 86.3027 46.8145 87.9141C42.9258 88.0215 39.4883 90.0195 37.3828 93.0273C35.2773 90.0195 31.8613 88.043 27.9512 87.9141C29.0684 86.3027 29.7344 84.3477 29.7344 82.2207V80.2656C29.7344 74.7656 25.2656 70.2969 19.7656 70.2969C14.2656 70.2969 9.79688 74.7656 9.79688 80.2656V82.2207C9.79688 84.3262 10.4629 86.3027 11.5801 87.9141C5.15625 88.1074 0 93.3711 0 99.8379V107.852C0 109.033 0.966797 110 2.14844 110H37.3828H72.6172H107.852C109.033 110 110 109.033 110 107.852V99.8379C110 93.3711 104.844 88.1074 98.4199 87.9141ZM14.0938 80.2656C14.0938 77.1289 16.6504 74.5938 19.7656 74.5938C22.8809 74.5938 25.4375 77.1504 25.4375 80.2656V82.2207C25.4375 85.3574 22.8809 87.8926 19.7656 87.8926C16.6504 87.8926 14.0938 85.3359 14.0938 82.2207V80.2656ZM35.2344 105.703H4.29688V99.8379C4.29688 95.627 7.73437 92.1895 11.9453 92.1895H17.6172V100.783C17.6172 101.965 18.584 102.932 19.7656 102.932C20.9473 102.932 21.9141 101.965 21.9141 100.783V92.1895H27.5859C31.7969 92.1895 35.2344 95.627 35.2344 99.8379V105.703ZM49.3281 80.2656C49.3281 77.1289 51.8848 74.5938 55 74.5938C58.1152 74.5938 60.6719 77.1504 60.6719 80.2656V82.2207C60.6719 85.3574 58.1152 87.8926 55 87.8926C51.8848 87.8926 49.3281 85.3359 49.3281 82.2207V80.2656ZM70.4688 105.703H39.5312V99.8379C39.5312 95.627 42.9473 92.1895 47.1797 92.1895H52.8945V100.783C52.8945 101.965 53.8613 102.932 55.043 102.932C56.2246 102.932 57.1914 101.965 57.1914 100.783V92.1895H62.8418C67.0527 92.1895 70.4902 95.627 70.4902 99.8379V105.703H70.4688ZM84.5625 80.2656C84.5625 77.1289 87.1191 74.5938 90.2344 74.5938C93.3496 74.5938 95.9062 77.1504 95.9062 80.2656V82.2207C95.9062 85.3574 93.3496 87.8926 90.2344 87.8926C87.1191 87.8926 84.5625 85.3359 84.5625 82.2207V80.2656ZM105.703 105.703H74.7656V99.8379C74.7656 95.627 78.2031 92.1895 82.4141 92.1895H88.1504V100.783C88.1504 101.965 89.1172 102.932 90.2988 102.932C91.4805 102.932 92.4473 101.965 92.4473 100.783V92.1895H98.0762C102.287 92.1895 105.725 95.627 105.725 99.8379V105.703H105.703Z" fill="white"/>
<path d="M56.5254 41.6582C56.1172 41.25 55.5801 41.0352 55 41.0352C54.4199 41.0352 53.8828 41.2715 53.4746 41.6582C53.0664 42.0449 52.8516 42.6035 52.8516 43.1836C52.8516 43.7637 53.0879 44.3008 53.4746 44.709C53.8613 45.1172 54.4199 45.332 55 45.332C55.5801 45.332 56.1172 45.0957 56.5254 44.709C56.9336 44.3008 57.1484 43.7637 57.1484 43.1836C57.1484 42.6035 56.9121 42.0664 56.5254 41.6582Z" fill="white"/>
<path d="M65.4414 28.3594H64.5605C66.5801 26.1035 67.8047 23.1172 67.8047 19.873V13.2559V12.7832C67.7832 5.73633 62.0469 0 55 0C47.9531 0 42.2168 5.73633 42.2168 12.7832V19.873C42.2168 23.1387 43.4414 26.1035 45.4609 28.3594H44.5801C35.8145 28.3594 28.6816 35.4922 28.6816 44.2578V50.7031C28.6816 51.8848 29.6484 52.8516 30.8301 52.8516H52.8516V58.0078H19.7656C18.584 58.0078 17.6172 58.9746 17.6172 60.1562V65.1191C17.6172 66.3008 18.584 67.2676 19.7656 67.2676C20.9473 67.2676 21.9141 66.3008 21.9141 65.1191V62.3047H52.8516V65.1191C52.8516 66.3008 53.8184 67.2676 55 67.2676C56.1816 67.2676 57.1484 66.3008 57.1484 65.1191V62.3047H64.4746C65.6562 62.3047 66.623 61.3379 66.623 60.1562C66.623 58.9746 65.6562 58.0078 64.4746 58.0078H57.1484V52.8516H79.1914C80.373 52.8516 81.3398 51.8848 81.3398 50.7031V44.2578C81.3398 35.4922 74.207 28.3594 65.4414 28.3594ZM55 4.29688C59.2539 4.29688 62.7988 7.45508 63.4004 11.5371L59.6191 9.30273C58.7168 8.76562 57.5566 8.98047 56.8906 9.77539C55.0644 11.9453 52.4004 13.1914 49.5859 13.1914H46.5352V12.7832C46.5137 8.09961 50.3164 4.29688 55 4.29688ZM46.5137 17.5098H49.5645C53.0449 17.5098 56.3535 16.1992 58.8887 13.9004L63.4863 16.6074V19.8945C63.4863 24.5781 59.6836 28.3809 55 28.3809C50.3164 28.3809 46.5137 24.5781 46.5137 19.8945V17.5098ZM77.043 48.5547H32.957V44.2578C32.957 37.8555 38.1562 32.6562 44.5586 32.6562H52.8516V35.0195C52.8516 36.2012 53.8184 37.168 55 37.168C56.1816 37.168 57.1484 36.2012 57.1484 35.0195V32.6562H65.4414C71.8438 32.6562 77.043 37.8555 77.043 44.2578V48.5547Z" fill="white"/>
<path d="M73.7129 58.6309C73.3047 58.2227 72.7676 58.0078 72.1875 58.0078C71.6289 58.0078 71.0703 58.2441 70.6621 58.6309C70.2539 59.0391 70.0391 59.5762 70.0391 60.1562C70.0391 60.7363 70.2754 61.2734 70.6621 61.6816C71.0703 62.0898 71.6074 62.3047 72.1875 62.3047C72.7461 62.3047 73.3047 62.0684 73.7129 61.6816C74.1211 61.2734 74.3359 60.7363 74.3359 60.1562C74.3359 59.5762 74.1211 59.0391 73.7129 58.6309Z" fill="white"/>
<path d="M90.2988 58.0078H79.1914C78.0098 58.0078 77.043 58.9746 77.043 60.1562C77.043 61.3379 78.0098 62.3047 79.1914 62.3047H88.1504V65.1191C88.1504 66.3008 89.1172 67.2676 90.2988 67.2676C91.4805 67.2676 92.4473 66.3008 92.4473 65.1191V60.1562C92.4473 58.9746 91.4805 58.0078 90.2988 58.0078Z" fill="white"/>
</svg>
