<svg width="110" height="110" viewBox="0 0 110 110" fill="none" xmlns="http://www.w3.org/2000/svg">
<g clip-path="url(#clip0)">
<path d="M107.573 95.8423L87.6567 75.9263C88.1938 75.0884 88.1079 73.9712 87.3774 73.2192C86.647 72.4888 85.5083 72.4028 84.6704 72.9399L79.3638 67.6333C83.3384 61.7466 85.8306 54.9146 86.561 47.7817C87.5493 38.0278 85.186 28.145 79.9224 19.938C79.2778 18.9497 77.9458 18.6489 76.9575 19.2935C75.9692 19.938 75.6685 21.27 76.313 22.2583C86.1743 37.5982 83.9614 58.0942 71.0493 71.0278C55.8169 86.2603 31.0024 86.2603 15.77 71.0278C0.537597 55.7954 0.537597 30.981 15.77 15.7486C28.7036 2.81496 48.5552 0.537614 64.0454 10.1841C65.0552 10.8071 66.3872 10.5064 67.0102 9.4966C67.6333 8.48683 67.3325 7.1548 66.3228 6.53175C58.1372 1.43996 48.3188 -0.794417 38.6938 0.258317C28.9185 1.31105 19.7017 5.73683 12.7192 12.7193C-4.18896 29.6275 -4.18896 57.1704 12.7192 74.0786C21.1841 82.5435 32.2915 86.7759 43.3989 86.7759C51.8638 86.7759 60.3286 84.3267 67.6118 79.4067L72.897 84.6919C72.102 85.5298 72.1235 86.8618 72.9399 87.6782C73.3696 88.1079 73.9067 88.3013 74.4653 88.3013C75.0024 88.3013 75.5181 88.1079 75.9478 87.7212L95.8423 107.616C97.4536 109.227 99.5376 110.022 101.665 110.022C103.792 110.022 105.94 109.206 107.551 107.573C110.774 104.329 110.795 99.0649 107.573 95.8423ZM72.0591 77.7524L77.7309 72.0806L81.6196 75.9692L75.9478 81.6411L72.0591 77.7524ZM104.5 104.522C102.932 106.09 100.418 106.112 98.8716 104.565L78.977 84.6704L84.6489 78.9985L104.543 98.8931C106.069 100.44 106.069 102.954 104.5 104.522Z" fill="white"/>
<path d="M74.1211 12.7617L74.0781 12.7187C73.2402 11.8809 71.8867 11.8809 71.0488 12.7187C70.2109 13.5566 70.2109 14.9102 71.0488 15.748L71.1133 15.8125C71.543 16.2422 72.0801 16.4355 72.6387 16.4355C73.1973 16.4355 73.7344 16.2207 74.1641 15.8125C74.959 14.9531 74.959 13.5996 74.1211 12.7617Z" fill="white"/>
<path d="M43.3984 10.3125C25.1582 10.3125 10.3125 25.1582 10.3125 43.3984C10.3125 61.6387 25.1582 76.4844 43.3984 76.4844C61.6387 76.4844 76.4844 61.6387 76.4844 43.3984C76.4844 25.1582 61.6387 10.3125 43.3984 10.3125ZM43.3984 72.166C27.5215 72.166 14.6094 59.2539 14.6094 43.377C14.6094 27.5 27.5215 14.6094 43.3984 14.6094C59.2754 14.6094 72.1875 27.5215 72.1875 43.3984C72.1875 59.2754 59.2754 72.166 43.3984 72.166Z" fill="white"/>
<path d="M51.5625 40.6055C52.8945 38.8652 53.6895 36.6953 53.6895 34.332V31.5176C53.6895 25.8242 49.0703 21.2051 43.377 21.2051C37.6836 21.2051 33.0645 25.8242 33.0645 31.5176V34.332C33.0645 36.6953 33.8594 38.8652 35.1914 40.6055C28.3594 41.8945 23.1816 47.9102 23.1816 55.1074V56.2246C23.1816 57.4062 24.1484 58.373 25.3301 58.373H61.4238C62.6055 58.373 63.5723 57.4062 63.5723 56.2246V55.1074C63.5938 47.8887 58.3945 41.8945 51.5625 40.6055ZM37.3828 31.5176C37.3828 28.209 40.0898 25.502 43.3984 25.502C46.707 25.502 49.4141 28.209 49.4141 31.5176V34.332C49.4141 37.6406 46.707 40.3477 43.3984 40.3477C40.0898 40.3477 37.3828 37.6406 37.3828 34.332V31.5176ZM27.543 54.0547C28.0586 48.7695 32.5273 44.623 37.9629 44.623H48.834C54.248 44.623 58.7168 48.7695 59.2539 54.0547H27.543Z" fill="white"/>
<path d="M95.0254 2.57812C93.8438 2.57812 92.877 3.54492 92.877 4.72656V7.39062C92.877 8.57227 93.8438 9.53906 95.0254 9.53906C96.207 9.53906 97.1738 8.57227 97.1738 7.39062V4.72656C97.1738 3.54492 96.207 2.57812 95.0254 2.57812Z" fill="white"/>
<path d="M95.0254 15.3613C93.8438 15.3613 92.877 16.3281 92.877 17.5098V20.1953C92.877 21.377 93.8438 22.3438 95.0254 22.3438C96.207 22.3438 97.1738 21.377 97.1738 20.1953V17.5098C97.1738 16.3281 96.207 15.3613 95.0254 15.3613Z" fill="white"/>
<path d="M102.76 10.3125H100.096C98.9141 10.3125 97.9473 11.2793 97.9473 12.4609C97.9473 13.6426 98.9141 14.6094 100.096 14.6094H102.76C103.941 14.6094 104.908 13.6426 104.908 12.4609C104.908 11.2793 103.941 10.3125 102.76 10.3125Z" fill="white"/>
<path d="M89.9551 10.3125H87.291C86.1094 10.3125 85.1426 11.2793 85.1426 12.4609C85.1426 13.6426 86.1094 14.6094 87.291 14.6094H89.9551C91.1367 14.6094 92.1035 13.6426 92.1035 12.4609C92.1035 11.2793 91.1582 10.3125 89.9551 10.3125Z" fill="white"/>
<path d="M13.2988 88.5156C12.1172 88.5156 11.1504 89.4824 11.1504 90.6641V93.3281C11.1504 94.5098 12.1172 95.4766 13.2988 95.4766C14.4805 95.4766 15.4473 94.5098 15.4473 93.3281V90.6641C15.4473 89.4824 14.502 88.5156 13.2988 88.5156Z" fill="white"/>
<path d="M13.2988 101.32C12.1172 101.32 11.1504 102.287 11.1504 103.469V106.133C11.1504 107.314 12.1172 108.281 13.2988 108.281C14.4805 108.281 15.4473 107.314 15.4473 106.133V103.469C15.4473 102.266 14.502 101.32 13.2988 101.32Z" fill="white"/>
<path d="M21.0332 96.25H18.3691C17.1875 96.25 16.2207 97.2168 16.2207 98.3984C16.2207 99.5801 17.1875 100.547 18.3691 100.547H21.0332C22.2148 100.547 23.1816 99.5801 23.1816 98.3984C23.1816 97.2168 22.2363 96.25 21.0332 96.25Z" fill="white"/>
<path d="M8.25 96.25H5.56445C4.38281 96.25 3.41602 97.2168 3.41602 98.3984C3.41602 99.5801 4.38281 100.547 5.56445 100.547H8.22852C9.41016 100.547 10.377 99.5801 10.377 98.3984C10.377 97.2168 9.43164 96.25 8.25 96.25Z" fill="white"/>
</g>
<defs>
<clipPath id="clip0">
<rect width="110" height="110" fill="white"/>
</clipPath>
</defs>
</svg>
