<svg width="110" height="110" viewBox="0 0 110 110" fill="none" xmlns="http://www.w3.org/2000/svg">
<g clip-path="url(#clip0)">
<path d="M109.721 94.252C109.227 91.9316 106.971 90.4277 104.629 90.9219C102.309 91.416 100.805 93.6719 101.299 96.0137C101.578 97.3457 101.256 98.7207 100.396 99.7734C99.9024 100.375 98.7852 101.406 96.959 101.406H13.041C11.2149 101.406 10.0977 100.375 9.60355 99.7734C8.74417 98.7207 8.42191 97.3457 8.7012 96.0137C13.17 74.5938 32.0547 58.9531 53.8614 58.416C54.2481 58.4375 54.6133 58.4375 55 58.4375C55.3867 58.4375 55.7735 58.4375 56.1387 58.416C71.5 58.7812 85.7012 66.5586 94.3164 79.4062C95.6485 81.3828 98.3125 81.8984 100.289 80.5879C102.266 79.2559 102.781 76.5918 101.471 74.6367C94.4238 64.1309 84.1758 56.4824 72.5098 52.6367C79.5996 47.2656 84.2188 38.7793 84.2188 29.2188C84.2188 13.1055 71.1133 0 55 0C38.8867 0 25.7813 13.1055 25.7813 29.2188C25.7813 38.7793 30.4004 47.2871 37.5117 52.6152C30.9805 54.7637 24.8575 58.1152 19.5078 62.5195C9.68948 70.5977 2.85745 81.877 0.279327 94.252C-0.537079 98.1406 0.429718 102.115 2.94339 105.188C5.43558 108.238 9.10941 110 13.041 110H96.959C100.891 110 104.586 108.238 107.057 105.188C109.57 102.115 110.537 98.1406 109.721 94.252ZM34.375 29.2188C34.375 17.8535 43.6348 8.59375 55 8.59375C66.3653 8.59375 75.625 17.8535 75.625 29.2188C75.625 40.2402 66.9239 49.2637 56.0528 49.8223C55.709 49.8223 55.3653 49.8223 55 49.8223C54.6563 49.8223 54.3125 49.8223 53.9688 49.8223C43.0762 49.2852 34.375 40.2402 34.375 29.2188Z" fill="white"/>
</g>
<defs>
<clipPath id="clip0">
<rect width="110" height="110" fill="white"/>
</clipPath>
</defs>
</svg>
