<svg width="100" height="100" viewBox="0 0 100 100" fill="none" xmlns="http://www.w3.org/2000/svg">
<path d="M63.4831 22.2846H77.7154V36.5169H82.2097V22.2846C82.2097 19.8127 80.1873 17.7903 77.7154 17.7903H63.4831V22.2846Z" fill="#FF7043"/>
<path d="M22.2846 36.5169V22.2846H36.5169V17.7903H22.2846C19.8127 17.7903 17.7903 19.8127 17.7903 22.2846V36.5169H22.2846Z" fill="#FF7043"/>
<path d="M77.7154 63.4831V77.7154H63.4831V82.2097H77.7154C80.1873 82.2097 82.2097 80.1873 82.2097 77.7154V63.4831H77.7154Z" fill="#FF7043"/>
<path d="M36.5169 77.7154H22.2846V63.4831H17.7903V77.7154C17.7903 80.1873 19.8127 82.2097 22.2846 82.2097H36.5169V77.7154Z" fill="#FF7043"/>
<path d="M12.7341 47.7528H2.24719C1.01124 47.7528 0 48.764 0 50C0 51.236 1.01124 52.2472 2.24719 52.2472H12.7341V47.7528Z" fill="#FF7043"/>
<path d="M52.2472 12.7341V2.24719C52.2472 1.01124 51.236 0 50 0C48.764 0 47.7528 1.01124 47.7528 2.24719V12.7341H52.2472Z" fill="#FF7043"/>
<path d="M47.7528 87.2659V97.7528C47.7528 98.9888 48.764 100 50 100C51.236 100 52.2472 98.9888 52.2472 97.7528V87.2659H47.7528Z" fill="#FF7043"/>
<path d="M97.7528 47.7528H87.2659V52.2472H97.7528C98.9888 52.2472 100 51.236 100 50C100 48.764 98.9888 47.7528 97.7528 47.7528Z" fill="#FF7043"/>
<path d="M49.5438 28.7236C49.9564 28.7236 50.3879 28.7236 50.8005 28.7236C51.457 28.9297 52.0572 29.2107 52.5074 29.7352C53.5391 30.9341 53.5766 32.8448 52.1885 34.1186C51.0068 35.2051 51.457 37.1159 53.0139 37.5092C54.4769 37.8839 55.8274 38.4459 57.1404 39.1765C58.5097 39.9445 60.0478 39.0079 60.0853 37.4156C60.0853 37.2283 60.0853 37.0222 60.0853 36.8349C60.1228 35.2426 61.267 33.8751 62.8426 33.5567C64.437 33.2195 66.0688 34.0624 66.7253 35.5423C67.3631 37.0035 66.9129 38.7643 65.6562 39.701C64.8871 40.2817 64.0055 40.4128 63.0677 40.4128C61.4921 40.3941 60.5167 42.0051 61.3045 43.3726C62.036 44.6464 62.6175 45.9764 62.9551 47.4001C63.1239 48.1494 63.6116 48.6926 64.3807 48.8612C65.1872 49.0298 65.9188 48.8987 66.519 48.2243C67.7194 46.8756 69.6327 46.8568 70.9269 48.1307C71.3771 48.5802 71.6022 49.161 71.8085 49.7417C71.8085 50.0976 71.8085 50.4722 71.8085 50.8282C71.7335 50.9968 71.6772 51.1654 71.6022 51.334C70.7769 53.4695 68.0196 53.9565 66.5002 52.2519C65.4498 51.0717 63.5179 51.4276 63.0302 52.945C62.58 54.4248 62.0548 55.8673 61.267 57.216C60.8168 57.984 61.0232 58.8457 61.6234 59.5014C62.1861 60.1008 62.8801 60.0821 63.6116 60.1008C65.1122 60.1196 66.4252 61.0937 66.8754 62.5173C67.3256 63.9598 66.8566 65.4584 65.6562 66.3388C64.3807 67.2754 62.8238 67.2942 61.5671 66.395C60.4792 65.627 60.0665 64.5405 60.0853 63.2292C60.1041 61.4121 58.5097 60.4942 56.9529 61.4121C55.7899 62.1052 54.5519 62.5923 53.2577 62.9295C52.4511 63.1355 51.8322 63.5664 51.6446 64.4093C51.4383 65.2523 51.6446 65.9829 52.3386 66.6011C53.4078 67.5377 53.5766 69.2049 52.8263 70.4038C52.3574 71.1531 51.6258 71.5278 50.838 71.8087C50.4817 71.8087 50.1065 71.8087 49.7501 71.8087C49.6376 71.7713 49.5063 71.7151 49.3937 71.6776C48.2496 71.303 47.518 70.5162 47.2742 69.336C47.0303 68.1933 47.4242 67.2192 48.2871 66.4699C48.9436 65.8892 49.0186 65.1587 48.8685 64.3906C48.7185 63.6413 48.1933 63.1355 47.4618 62.9857C45.9799 62.6672 44.6107 62.0678 43.2977 61.2997C42.5099 60.8501 41.6283 61.0187 40.9905 61.6556C40.4278 62.2176 40.4091 62.9107 40.4091 63.6413C40.4091 65.1025 39.4525 66.3763 38.0644 66.8446C36.6764 67.3129 35.1196 66.8633 34.2005 65.7019C33.3189 64.5967 33.2063 62.9482 33.9566 61.7493C34.7257 60.513 35.8511 60.0259 37.2954 60.0446C39.021 60.0821 39.9589 58.4711 39.1148 56.9912C38.4208 55.7736 37.8769 54.5185 37.558 53.151C37.2954 52.0833 36.5826 51.5775 35.476 51.5587C34.8382 51.5587 34.4068 51.8772 33.9941 52.3081C32.7937 53.5257 31.0305 53.6193 29.7363 52.5141C29.1923 52.0645 28.9297 51.4463 28.7234 50.8094C28.7234 50.3973 28.7234 49.9665 28.7234 49.5543C28.986 48.9174 29.2486 48.2805 29.8301 47.8497C31.1431 46.8194 32.925 46.9318 34.1254 48.2993C34.932 49.1984 37.014 49.1235 37.4642 47.5874C37.9144 46.0513 38.4958 44.6089 39.2649 43.204C39.8839 42.08 39.1711 40.75 37.9144 40.469C37.5955 40.3941 37.2766 40.4128 36.9578 40.4128C34.8195 40.3941 33.2063 38.5021 33.5252 36.3853C33.7691 34.793 35.1383 33.5754 36.8452 33.4255C38.2333 33.3131 39.7713 34.3622 40.2778 35.7484C40.4841 36.3104 40.4653 36.8723 40.4841 37.453C40.5216 38.9517 42.0034 39.907 43.3164 39.2139C44.7045 38.4646 46.1488 37.8652 47.6681 37.4343C48.4559 37.2095 48.906 36.5164 48.9811 35.6922C49.0373 34.9616 48.7372 34.4371 48.2308 33.95C46.9178 32.6762 46.9553 30.6344 48.2496 29.4542C48.5497 29.117 49.0561 28.9297 49.5438 28.7236Z" fill="white"/>
</svg>
