<svg width="122" height="100" viewBox="0 0 122 100" fill="none" xmlns="http://www.w3.org/2000/svg">
<path d="M94.4087 72.8788C94.0336 72.5037 93.5249 72.293 92.9944 72.293H60.765H28.5356C28.0051 72.293 27.4964 72.5037 27.1214 72.8788L3.41421 96.5859C2.15428 97.8458 3.04662 100 4.82843 100H60.765H116.702C118.483 100 119.376 97.8458 118.116 96.5859L94.4087 72.8788Z" fill="#E8CA04"/>
<path d="M60.5638 0C66.1476 0 72.4731 1.41979 77.739 4.61962C93.9819 14.4628 98.9405 38.1225 87.9742 54.3759C79.8581 66.4124 61.5491 91.5978 60.7227 92.2865H60.7969C59.9704 91.5978 41.6614 66.4018 33.5453 54.3653C22.579 38.1119 27.5377 14.4628 43.7805 4.60903C49.0465 1.41979 55.3826 0 60.9664 0H60.5638Z" fill="#EA641D"/>
<path d="M61.0512 17.9382C61.4009 17.9382 61.7505 17.9382 62.1002 17.9382C62.6405 18.1078 63.1385 18.3409 63.52 18.7859C64.3676 19.7712 64.41 21.3712 63.2551 22.4307C62.2697 23.3313 62.6511 24.9206 63.9332 25.2597C65.1411 25.5776 66.2642 26.0438 67.3555 26.6477C68.4998 27.2834 69.7713 26.4994 69.7925 25.1855C69.7925 25.0266 69.7925 24.8571 69.7925 24.6981C69.8243 23.3737 70.7673 22.24 72.0811 21.9751C73.4055 21.6996 74.7618 22.3883 75.3021 23.628C75.8319 24.8359 75.4505 26.2981 74.4121 27.0927C73.7764 27.5801 73.0453 27.6861 72.2718 27.6861C70.958 27.6755 70.1527 29.0105 70.7991 30.1548C71.403 31.2144 71.8904 32.3163 72.1659 33.503C72.3142 34.1281 72.7062 34.5731 73.342 34.7109C74.0095 34.8486 74.624 34.7426 75.122 34.1811C76.118 33.058 77.7073 33.0474 78.7774 34.1069C79.1589 34.4884 79.3284 34.9546 79.4979 35.4419C79.4979 35.7492 79.4979 36.0459 79.4979 36.3532C79.445 36.4909 79.3814 36.6392 79.3284 36.777C78.6397 38.5464 76.3511 38.9596 75.0902 37.5398C74.2108 36.5545 72.6109 36.8511 72.2188 38.112C71.8374 39.3411 71.4136 40.5384 70.7567 41.6509C70.3858 42.2972 70.5448 43.0071 71.0533 43.5475C71.5195 44.0455 72.1023 44.0349 72.7062 44.0349C73.9565 44.0455 75.0372 44.8613 75.4081 46.048C75.7895 47.2559 75.3869 48.4956 74.3909 49.2266C73.3314 50.0001 72.0493 50.0213 71.0004 49.269C70.0998 48.6227 69.7607 47.7221 69.7713 46.6308C69.7925 45.1156 68.4681 44.3633 67.1754 45.1262C66.2112 45.6984 65.194 46.101 64.1133 46.3871C63.4458 46.5672 62.9372 46.9062 62.7677 47.6161C62.5982 48.326 62.7571 48.93 63.3398 49.4386C64.2299 50.2226 64.3676 51.6 63.7425 52.6066C63.3504 53.2317 62.7465 53.539 62.0896 53.7721C61.7823 53.7721 61.4856 53.7721 61.1784 53.7721C61.083 53.7403 60.9876 53.6979 60.8817 53.6661C59.9281 53.3483 59.3242 52.702 59.1123 51.7166C58.9109 50.763 59.2288 49.9683 59.9493 49.3326C60.5003 48.8558 60.5638 48.2413 60.4367 47.6055C60.3095 46.9804 59.8751 46.5672 59.2606 46.44C58.0209 46.1752 56.8978 45.6772 55.8065 45.0414C55.1496 44.66 54.4291 44.8083 53.8887 45.3487C53.4225 45.8149 53.4013 46.3977 53.4013 47.0016C53.4013 48.2095 52.6172 49.269 51.4517 49.6717C50.2968 50.0637 49.0042 49.6823 48.2413 48.7287C47.5102 47.8069 47.4149 46.44 48.04 45.4441C48.6863 44.4163 49.6187 44.0031 50.816 44.0349C52.2464 44.0667 53.0305 42.7316 52.3206 41.492C51.7484 40.4854 51.2928 39.4364 51.0173 38.3027C50.8054 37.4127 50.2121 36.9889 49.2903 36.9889C48.7605 36.9889 48.4002 37.2538 48.0506 37.6034C47.0546 38.6206 45.5924 38.6842 44.5117 37.7835C44.0667 37.4127 43.8442 36.9041 43.6641 36.3638C43.6641 36.0141 43.6641 35.6644 43.6641 35.3148C43.876 34.785 44.1091 34.2658 44.5753 33.895C45.6666 33.0368 47.1394 33.1427 48.1459 34.2764C48.8135 35.0287 50.5405 34.9546 50.922 33.6831C51.2928 32.4116 51.7802 31.2038 52.4159 30.0383C52.9245 29.1059 52.3312 27.9933 51.2928 27.7708C51.0279 27.7073 50.763 27.7178 50.4981 27.7178C48.7181 27.6967 47.3831 26.1285 47.648 24.3697C47.8493 23.0452 48.9936 22.0281 50.4028 21.9115C51.5577 21.8162 52.8291 22.685 53.253 23.8399C53.4225 24.3061 53.4013 24.7723 53.4225 25.2491C53.4543 26.4888 54.6939 27.294 55.7747 26.7113C56.9296 26.0861 58.1269 25.5882 59.3877 25.2385C60.0447 25.0584 60.4155 24.4756 60.4685 23.7975C60.5215 23.1936 60.2672 22.7592 59.8539 22.3565C58.7626 21.3076 58.7838 19.6017 59.8751 18.6163C60.2354 18.2561 60.6486 18.1078 61.0512 17.9382Z" fill="white"/>
</svg>
